<svg xmlns="http://www.w3.org/2000/svg" viewBox="0 0 128 128" width="128px" height="128px">
  <path fill="#FFF" d="M6.4 0h115.2c3.52 0 6.4 2.88 6.4 6.4v115.2c0 3.52-2.88 6.4-6.4 6.4H6.4C2.88 128 0 125.12 0 121.6V6.4C0 2.88 2.88 0 6.4 0z"/>
  <path fill="#FFF" d="M16 16h96v96H16z"/>
  <path fill="#1E1E1E" d="M59.456 17.12l9.728 9.76 6.656-6.656L66.4 10.72c-.384-.384-1.056-.384-1.44 0L48.928 26.912 42.24 20.48l6.656-6.656a.98.98 0 0 1 1.472 0zM35.712 36.16l6.656-6.656 16.512 16.512-6.656 6.656zm36.864 7.68l6.656-6.656 6.656 6.656-6.656 6.656zM32 64l6.656-6.656 6.656 6.656L38.656 70.656zM64 32l6.656-6.656 6.656 6.656L70.656 38.656zm0 32l-6.656 6.656-6.656-6.656L57.344 64zm-32-32l6.656-6.656-6.656-6.656L24.688 32zm16 48l-6.656 6.656 6.656 6.656L40.688 80z"/>
</svg>
